<svg xmlns="http://www.w3.org/2000/svg" xmlns:xlink="http://www.w3.org/1999/xlink" width="20.61" height="25.998" viewBox="0 0 20.61 25.998">
  <defs>
    <linearGradient id="linear-gradient" y1="0.5" x2="1" y2="0.5" gradientUnits="objectBoundingBox">
      <stop offset="0" stop-color="#00f2fe"/>
      <stop offset="0.021" stop-color="#03effe"/>
      <stop offset="0.293" stop-color="#24d2fe"/>
      <stop offset="0.554" stop-color="#3cbdfe"/>
      <stop offset="0.796" stop-color="#4ab0fe"/>
      <stop offset="1" stop-color="#4facfe"/>
    </linearGradient>
  </defs>
  <path id="audit" d="M19.6,17.925a1.016,1.016,0,0,0,1.016-1.016V6.6a4.067,4.067,0,0,0-4.062-4.062h-3.2V1.016A1.016,1.016,0,0,0,12.334,0H8.272A1.015,1.015,0,0,0,7.256,1.016V2.539H4.063A4.067,4.067,0,0,0,0,6.6V21.936A4.067,4.067,0,0,0,4.063,26H16.548a4.067,4.067,0,0,0,4.062-4.062,1.016,1.016,0,1,0-2.031,0,2.033,2.033,0,0,1-2.031,2.031H4.063a2.033,2.033,0,0,1-2.031-2.031V6.6A2.033,2.033,0,0,1,4.063,4.57H7.256v.508a3.047,3.047,0,1,0,6.093,0V4.57h3.2A2.033,2.033,0,0,1,18.579,6.6V16.909A1.015,1.015,0,0,0,19.6,17.925ZM11.318,5.078a1.016,1.016,0,0,1-2.031,0V2.031h2.031Zm4.438,6.48a1.016,1.016,0,0,1,.255,1.413l-4.518,6.51c-.013.019-.028.038-.043.057a2.617,2.617,0,0,1-1.862.97c-.058,0-.115.006-.173.006a2.618,2.618,0,0,1-1.8-.72L7.6,19.781,4.917,17.126a1.016,1.016,0,1,1,1.428-1.444l2.676,2.646a.58.58,0,0,0,.829-.041l4.493-6.474a1.016,1.016,0,0,1,1.413-.255Zm0,0" transform="translate(0)" fill="url(#linear-gradient)"/>
</svg>
