<svg id="cup" xmlns="http://www.w3.org/2000/svg" width="18.185" height="18.744" viewBox="0 0 18.185 18.744">
  <path id="Path_409" data-name="Path 409" d="M152.875,383.98h-1.7a1.127,1.127,0,0,0-1.127,1.127v1.255h7.764v-1.255a1.127,1.127,0,0,0-1.127-1.127h-3.813Z" transform="translate(-144.84 -369.927)" fill="#f9ac30"/>
  <path id="Path_410" data-name="Path 410" d="M25.334,32.977a3.251,3.251,0,0,0-2.875-1.417H10.992a3.251,3.251,0,0,0-2.875,1.417,3.707,3.707,0,0,0-.044,3.594c1.105,2.382,4.593,3.177,4.741,3.21l.339.075H20.3l.34-.075c.148-.033,3.635-.827,4.741-3.21A3.708,3.708,0,0,0,25.334,32.977Zm-1,3.108a4.639,4.639,0,0,1-2.269,1.973,9.175,9.175,0,0,1-.9.366H12.286a9.211,9.211,0,0,1-.9-.366,4.64,4.64,0,0,1-2.269-1.973,2.59,2.59,0,0,1-.03-2.488,2.144,2.144,0,0,1,1.9-.884H22.459a2.145,2.145,0,0,1,1.9.884A2.591,2.591,0,0,1,24.333,36.085Z" transform="translate(-7.633 -30.404)" fill="#dd8d19"/>
  <path id="Path_411" data-name="Path 411" d="M106.8,14.068l0-1.119a2.272,2.272,0,0,1,1.108-1.965c2.206-1.3,3.785-4.778,3.785-8.868V0H100.3V2.117c0,4.09,1.579,7.57,3.785,8.868a2.272,2.272,0,0,1,1.108,1.965l0,1.119.921.955Z" transform="translate(-96.902)" fill="#f9ac30"/>
  <g id="Group_203" data-name="Group 203" transform="translate(3.391)">
    <path id="Path_412" data-name="Path 412" d="M105.617,12.936v1.117H105.2l0-1.117a2.269,2.269,0,0,0-1.109-1.963c-2.209-1.3-3.79-4.773-3.79-8.858V0h2.975V2.114c0,4.085.757,7.562,1.814,8.858A3.289,3.289,0,0,1,105.617,12.936Z" transform="translate(-100.298)" fill="#dd8d19"/>
    <path id="Path_413" data-name="Path 413" d="M153.638,383.98h-2.459a1.127,1.127,0,0,0-1.127,1.127v1.255h2.459v-1.255A1.127,1.127,0,0,1,153.638,383.98Z" transform="translate(-148.229 -369.927)" fill="#dd8d19"/>
  </g>
  <path id="Path_414" data-name="Path 414" d="M124.294,432.212h-2.961a.64.64,0,0,0-.639.64v2.283h9.9v-2.283a.64.64,0,0,0-.639-.64h-2.961" transform="translate(-116.551 -416.392)" fill="#4f5b5e"/>
  <path id="Path_415" data-name="Path 415" d="M122.1,432.212h-.768a.64.64,0,0,0-.64.64v2.283h.768v-2.283A.64.64,0,0,1,122.1,432.212Z" transform="translate(-116.553 -416.392)" fill="#3b4547"/>
</svg>
