<svg id="Group_242" data-name="Group 242" xmlns="http://www.w3.org/2000/svg" width="24.03" height="18.745" viewBox="0 0 24.03 18.745">
  <path id="Subtraction_9" data-name="Subtraction 9" d="M5.316,11.437c-1.37,0-2.705-1.018-3.76-2.867A12.485,12.485,0,0,1,0,2.652,3.622,3.622,0,0,1,.463.522,1.442,1.442,0,0,1,1.72,0,9.341,9.341,0,0,1,3.178.174,12.758,12.758,0,0,0,5.316.406,12.723,12.723,0,0,0,7.452.175,9.376,9.376,0,0,1,8.913,0a1.442,1.442,0,0,1,1.256.522,3.622,3.622,0,0,1,.463,2.131A12.476,12.476,0,0,1,9.075,8.57C8.022,10.419,6.687,11.437,5.316,11.437Zm0-3.83a3.081,3.081,0,0,1,2.27.984.49.49,0,0,0,.36.159.478.478,0,0,0,.482-.478c0-.1,0-.194-.011-.295A3.145,3.145,0,0,0,5.653,5.153a3.238,3.238,0,0,0-.337-.018A3.115,3.115,0,0,0,2.2,8.247v.04a.466.466,0,0,0,.479.463.493.493,0,0,0,.363-.159A3.079,3.079,0,0,1,5.316,7.608ZM6.472,2.321a.2.2,0,0,0-.206.2c0,.035,0,.076,0,.126A1.329,1.329,0,0,0,7.453,3.861c.054.005.1.008.144.008A1.333,1.333,0,0,0,8.929,2.536V2.528a.05.05,0,0,1,0-.009.2.2,0,0,0-.205-.2.21.21,0,0,0-.155.068,1.335,1.335,0,0,1-.971.421,1.319,1.319,0,0,1-.971-.421A.21.21,0,0,0,6.472,2.321Zm-4.561,0a.2.2,0,0,0-.206.2c0,.038,0,.079,0,.126A1.329,1.329,0,0,0,2.891,3.861c.052.005.1.008.144.008A1.333,1.333,0,0,0,4.367,2.536V2.52a.2.2,0,0,0-.205-.2.21.21,0,0,0-.155.068,1.335,1.335,0,0,1-.971.421,1.319,1.319,0,0,1-.971-.421A.21.21,0,0,0,1.91,2.321Z" transform="translate(14.039 4.36) rotate(20)" fill="#ffb3c0"/>
  <path id="Subtraction_6" data-name="Subtraction 6" d="M6.567,14.123a4.092,4.092,0,0,1-2.556-.989,8.767,8.767,0,0,1-2.087-2.552A15.41,15.41,0,0,1,0,3.275,4.472,4.472,0,0,1,.572.644,1.78,1.78,0,0,1,2.124,0a11.416,11.416,0,0,1,1.8.215h.011A15.806,15.806,0,0,0,6.566.5,15.739,15.739,0,0,0,9.2.216h0A11.441,11.441,0,0,1,11.008,0,1.78,1.78,0,0,1,12.56.645a4.47,4.47,0,0,1,.572,2.631,15.418,15.418,0,0,1-1.922,7.306,8.767,8.767,0,0,1-2.087,2.552A4.087,4.087,0,0,1,6.567,14.123ZM3.319,7.395a.591.591,0,0,0-.6.59c0,.119,0,.242.014.364A3.884,3.884,0,0,0,6.15,11.838a3.972,3.972,0,0,0,.416.022,3.841,3.841,0,0,0,3.843-3.842v-.05A.576.576,0,0,0,9.818,7.4a.61.61,0,0,0-.449.2,3.841,3.841,0,0,1-5.606,0A.606.606,0,0,0,3.319,7.395ZM9.383,4.173a1.629,1.629,0,0,1,1.2.52.26.26,0,0,0,.191.085.252.252,0,0,0,.254-.253c0-.046,0-.1-.006-.155A1.641,1.641,0,0,0,9.561,2.876c-.063-.006-.123-.009-.178-.009A1.646,1.646,0,0,0,7.738,4.511c0,.007,0,.013,0,.021a.245.245,0,0,0,.252.245.262.262,0,0,0,.193-.084A1.65,1.65,0,0,1,9.383,4.173Zm-5.634,0a1.65,1.65,0,0,1,1.2.52.257.257,0,0,0,.191.084.253.253,0,0,0,.255-.252c0-.051,0-.1-.006-.155A1.663,1.663,0,0,0,3.927,2.875a1.756,1.756,0,0,0-.178-.009A1.647,1.647,0,0,0,2.1,4.511v.021a.246.246,0,0,0,.253.245.261.261,0,0,0,.192-.084A1.629,1.629,0,0,1,3.749,4.173Z" transform="translate(0 2.954) rotate(-13)" fill="#63d4ff"/>
</svg>
