<svg id="game" xmlns="http://www.w3.org/2000/svg" width="26.584" height="18.744" viewBox="0 0 26.584 18.744">
  <path id="Path_404" data-name="Path 404" d="M25.933,19.095A40.32,40.32,0,0,0,23,11.763c-.021-.049-.068-.233-.1-.367-.178-.7-.3-1.1-.639-1.228L18.871,8.932a1.444,1.444,0,0,0-1.28.15,7.291,7.291,0,0,1-.969.543h-1.73c0,.314,0,.528.005.6a1.768,1.768,0,0,1-1.741,2.067,1.769,1.769,0,0,1-1.734-2.1c0-.075,0-.276,0-.567H10.081A8.851,8.851,0,0,1,9,9.087a1.446,1.446,0,0,0-1.287-.155l-3.39,1.236c-.342.125-.46.527-.639,1.228-.034.135-.081.318-.1.358A40.387,40.387,0,0,0,.654,19.094C-.513,23.365-.113,26.16,1.843,27.4a1.283,1.283,0,0,0,1.488-.12l4.03-3.465a2.7,2.7,0,0,1,1.761-.653h8.342a2.7,2.7,0,0,1,1.761.653l4.03,3.465a1.275,1.275,0,0,0,.831.309,1.221,1.221,0,0,0,.657-.19C26.7,26.16,27.1,23.366,25.933,19.095ZM4.325,14.311a2.208,2.208,0,1,1,2.208,2.213A2.213,2.213,0,0,1,4.325,14.311Zm8.926,4.842a.759.759,0,0,1-.757.759H11.485v1.012a.759.759,0,0,1-.757.759H9.593a.759.759,0,0,1-.757-.759V19.912H7.826a.759.759,0,0,1-.757-.759V18.015a.759.759,0,0,1,.757-.759H8.835V16.245a.759.759,0,0,1,.757-.759h1.135a.759.759,0,0,1,.757.759v1.012h1.009a.759.759,0,0,1,.757.759Zm6.529-7.5a.885.885,0,1,1-.883.885A.884.884,0,0,1,19.78,11.655Zm-1.766,1.771a.885.885,0,1,1-.883.885A.884.884,0,0,1,18.014,13.426Zm-1.325,7.525A2.213,2.213,0,1,1,18.9,18.738,2.213,2.213,0,0,1,16.689,20.951Zm3.091-3.984a.885.885,0,1,1,.883-.885A.884.884,0,0,1,19.78,16.967ZM21.547,15.2a.885.885,0,1,1,.883-.885A.884.884,0,0,1,21.547,15.2Z" transform="translate(-0.002 -8.847)" fill="#495b75"/>
  <path id="Path_407" data-name="Path 407" d="M1.325,0A1.328,1.328,0,1,1,0,1.328,1.327,1.327,0,0,1,1.325,0Z" transform="translate(5.207 4.136)" fill="#b129ff"/>
  <path id="Path_405" data-name="Path 405" d="M20.607,25.844h-.883v1.771H17.958V28.5h1.766v1.771h.883V28.5h1.766v-.886H20.607Z" transform="translate(-10.007 -18.32)" fill="#f54747"/>
  <path id="Path_406" data-name="Path 406" d="M28.441,12.375a.884.884,0,0,0,1.042-.871.837.837,0,0,0-.016-.164,6.656,6.656,0,0,1-.015-.735h-1.7a5.3,5.3,0,0,1-.017.715.882.882,0,0,0,.7,1.055Z" transform="translate(-15.445 -9.826)" fill="#495b75"/>
  <path id="Path_408" data-name="Path 408" d="M1.325,0A1.328,1.328,0,1,1,0,1.328,1.327,1.327,0,0,1,1.325,0Z" transform="translate(15.363 8.563)" fill="#00ffba"/>
</svg>
