<svg id="weightlifting" xmlns="http://www.w3.org/2000/svg" width="19.49" height="18.745" viewBox="0 0 19.49 18.745">
  <path id="Path_416" data-name="Path 416" d="M178.482,307.584l.027.228c-.8.53.169.619.416,1.64a13.434,13.434,0,0,0-1.407,1.164,10.219,10.219,0,0,1-2.507,0,20.851,20.851,0,0,0-1.9-1.355c.248-1.027,1.7-.929.9-1.457l1.382-1.382Z" transform="translate(-166.519 -295.131)" fill="#0387d8"/>
  <rect id="Rectangle_1530" data-name="Rectangle 1530" width="16.625" height="0.597" transform="translate(1.432 3.029)" fill="#d6d6d2"/>
  <g id="Group_206" data-name="Group 206" transform="translate(4.706 12.285)">
    <path id="Path_417" data-name="Path 417" d="M290.774,334.048l-.523,3.716-2.429.606.441-2.827a10.157,10.157,0,0,1-1.262.236c0-.118-.005-.247-.008-.257a2.375,2.375,0,0,1,2.312-2.941h.194A1.287,1.287,0,0,1,290.774,334.048Z" transform="translate(-280.709 -332.581)" fill="#f9dca2"/>
    <path id="Path_418" data-name="Path 418" d="M126.2,335.544l.478,3.066-2.466-.845-.523-3.716a1.287,1.287,0,0,1,1.275-1.467h.194a2.379,2.379,0,0,1,2.311,2.941c0,.011-.005.139-.008.257A10.133,10.133,0,0,1,126.2,335.544Z" transform="translate(-123.676 -332.582)" fill="#f9dca2"/>
  </g>
  <g id="Group_207" data-name="Group 207" transform="translate(4.738 12.285)">
    <path id="Path_419" data-name="Path 419" d="M308.6,354.6l-.877,5.621h.776l.73-4.785a.64.64,0,0,0-.309-.648Z" transform="translate(-300.749 -353.763)" fill="#e5c691"/>
    <path id="Path_420" data-name="Path 420" d="M125.378,334.05l.657,4.057-.995-.341-.523-3.716a1.287,1.287,0,0,1,1.275-1.467h.194a2.359,2.359,0,0,1,.385.031A1.288,1.288,0,0,0,125.378,334.05Z" transform="translate(-124.505 -332.583)" fill="#e5c691"/>
    <path id="Path_421" data-name="Path 421" d="M288.715,334.515l-.363,2.328-.088.56a10.152,10.152,0,0,1-1.262.236c0-.118-.005-.247-.008-.257A2.381,2.381,0,0,1,288.715,334.515Z" transform="translate(-280.741 -334.441)" fill="#e5c691"/>
  </g>
  <path id="Path_422" data-name="Path 422" d="M88.7,74.821l-3.42,5.08c-.165.246-1.335,1.967-.947,3.355H79.752c.389-1.388-.782-3.109-.947-3.355l-3.42-5.08A1.133,1.133,0,1,1,77.2,73.461l.253.327.09.117.418.54,1.526,1.973H84.6l2.034-2.629.253-.327A1.133,1.133,0,1,1,88.7,74.821Z" transform="translate(-72.297 -70.6)" fill="#f9dca2"/>
  <g id="Group_208" data-name="Group 208" transform="translate(2.862 2.407)">
    <path id="Path_423" data-name="Path 423" d="M194.66,76.81l2.973,2.637,4.175-5.266.253-.327a1.131,1.131,0,0,1,1.312-.379,1.134,1.134,0,0,0-1.829-.019l-.253.327-2.035,2.629h-4.9Z" transform="translate(-189.813 -73.002)" fill="#e5c691"/>
    <path id="Path_424" data-name="Path 424" d="M81.054,83.247h-1.3c.389-1.388-.782-3.109-.947-3.355l-3.422-5.08A1.134,1.134,0,0,1,76.942,73.2l-.029.021a1.134,1.134,0,0,0-.228,1.587l3.422,5.08C80.272,80.138,81.443,81.859,81.054,83.247Z" transform="translate(-75.156 -72.998)" fill="#e5c691"/>
  </g>
  <path id="Path_425" data-name="Path 425" d="M186.911,190.544a2.5,2.5,0,0,0,.041,1.062H182.37a2.5,2.5,0,0,0,.041-1.062,4.024,4.024,0,0,0-.143-.6,6.092,6.092,0,0,0-.431-1.008c1.188-1.184.378-3.292.378-3.292h4.892s-.81,2.108.378,3.292a6.079,6.079,0,0,0-.431,1.008A4.018,4.018,0,0,0,186.911,190.544Z" transform="translate(-174.916 -178.954)" fill="#e22342"/>
  <path id="Path_426" data-name="Path 426" d="M233.342,228.371v.529a.934.934,0,1,1-1.868,0v-.529" transform="translate(-222.663 -220.051)" fill="#d1af7d"/>
  <ellipse id="Ellipse_7" data-name="Ellipse 7" cx="2.56" cy="2.56" rx="2.56" ry="2.56" transform="translate(7.185 3.378)" fill="#f9dca2"/>
  <path id="Path_427" data-name="Path 427" d="M183.743,191.608H182.37a3.879,3.879,0,0,0-.533-2.667c1.188-1.184.378-3.292.378-3.292H183l.745.469S182.506,189.971,183.743,191.608Z" transform="translate(-174.915 -178.956)" fill="#c11133"/>
  <path id="Path_428" data-name="Path 428" d="M190.111,101.1A2.561,2.561,0,0,1,192,98.628a2.56,2.56,0,1,0,0,4.944A2.561,2.561,0,0,1,190.111,101.1Z" transform="translate(-181.593 -95.162)" fill="#e5c691"/>
  <path id="Path_429" data-name="Path 429" d="M110.011,469.961h3.59l-.2-1.276h-2.3a1.088,1.088,0,0,0-1.088,1.088v.189Z" transform="translate(-105.824 -451.217)" fill="#e22342"/>
  <path id="Path_430" data-name="Path 430" d="M112,468.685h-.9a1.088,1.088,0,0,0-1.088,1.088v.189h.9v-.189A1.088,1.088,0,0,1,112,468.685Z" transform="translate(-105.823 -451.217)" fill="#c11133"/>
  <path id="Path_431" data-name="Path 431" d="M311.315,469.961h-3.59l.2-1.276h2.3a1.088,1.088,0,0,1,1.088,1.088v.189Z" transform="translate(-296.012 -451.217)" fill="#e22342"/>
  <path id="Path_432" data-name="Path 432" d="M307.925,468.685l-.2,1.276h.875l.2-1.276Z" transform="translate(-296.012 -451.217)" fill="#c11133"/>
  <g id="Group_209" data-name="Group 209" transform="translate(0 0)">
    <path id="Path_433" data-name="Path 433" d="M2,13.128v-2.8A.523.523,0,0,0,1.48,9.8H.523A.523.523,0,0,0,0,10.323v5.61a.523.523,0,0,0,.523.523H1.48A.523.523,0,0,0,2,15.933Z" transform="translate(0 -9.8)" fill="#455256"/>
    <path id="Path_434" data-name="Path 434" d="M461.4,13.128v-2.8a.523.523,0,0,0-.523-.523h-.957a.523.523,0,0,0-.523.523v5.61a.523.523,0,0,0,.523.523h.957a.523.523,0,0,0,.523-.523v-2.8Z" transform="translate(-441.909 -9.8)" fill="#455256"/>
  </g>
  <g id="Group_210" data-name="Group 210" transform="translate(0 4.901)">
    <path id="Path_435" data-name="Path 435" d="M2,139.422v-.876H0v1.23a.523.523,0,0,0,.523.523H1.48A.523.523,0,0,0,2,139.776Z" transform="translate(0 -138.546)" fill="#313c3f"/>
    <path id="Path_436" data-name="Path 436" d="M461.4,139.422v-.876h-2v1.23a.523.523,0,0,0,.523.523h.957a.523.523,0,0,0,.523-.523v-.353Z" transform="translate(-441.909 -138.546)" fill="#313c3f"/>
  </g>
  <path id="Path_437" data-name="Path 437" d="M316.69,194.813c0-.034,0-.068,0-.1" transform="translate(-304.633 -187.673)" fill="#455256"/>
  <g id="Group_211" data-name="Group 211" transform="translate(4.812 3.303)">
    <path id="Path_438" data-name="Path 438" d="M127.313,97.12a1,1,0,0,1-.533.555.219.219,0,1,1-.194-.392.537.537,0,0,0,.309-.7Z" transform="translate(-126.465 -96.58)" fill="#e5c691"/>
    <path id="Path_439" data-name="Path 439" d="M363.736,97.12a1,1,0,0,0,.533.555.219.219,0,1,0,.194-.392.537.537,0,0,1-.309-.7Z" transform="translate(-354.701 -96.58)" fill="#e5c691"/>
  </g>
  <g id="Group_212" data-name="Group 212" transform="translate(8.754 6.079)">
    <path id="Path_440" data-name="Path 440" d="M268.7,170.338a.259.259,0,0,1-.259-.259v-.334a.259.259,0,1,1,.517,0v.334A.259.259,0,0,1,268.7,170.338Z" transform="translate(-266.974 -169.487)" fill="#363d3f"/>
    <path id="Path_441" data-name="Path 441" d="M230.236,170.338a.259.259,0,0,1-.259-.259v-.334a.259.259,0,1,1,.517,0v.334A.259.259,0,0,1,230.236,170.338Z" transform="translate(-229.977 -169.487)" fill="#363d3f"/>
  </g>
  <path id="Path_442" data-name="Path 442" d="M197.948,298.579a4.014,4.014,0,0,0-.142.6h-4.5a4.02,4.02,0,0,0-.143-.6Z" transform="translate(-185.811 -287.586)" fill="#0387d8"/>
  <path id="Path_443" data-name="Path 443" d="M256.344,45.529l-.571-.119-.454-.095a1.946,1.946,0,0,1,1.947-2.107A1.865,1.865,0,0,1,256.344,45.529Z" transform="translate(-245.574 -41.936)" fill="#455256"/>
  <path id="Path_444" data-name="Path 444" d="M257.265,43.208a4.678,4.678,0,0,0-1.493,2.2l-.454-.095A1.946,1.946,0,0,1,257.265,43.208Z" transform="translate(-245.573 -41.936)" fill="#313c3f"/>
  <path id="Path_445" data-name="Path 445" d="M198.387,101.1a2.549,2.549,0,0,1-.249,1.1,1.612,1.612,0,0,0-2.123-1.62,2.743,2.743,0,0,1-1.378.079,2.289,2.289,0,0,1-1.192-.5,2.56,2.56,0,0,1,4.942.939Z" transform="translate(-186.082 -95.157)" fill="#455256"/>
  <path id="Path_446" data-name="Path 446" d="M196.494,98.623a2.563,2.563,0,0,0-1.856,2.033,2.289,2.289,0,0,1-1.192-.5,2.562,2.562,0,0,1,3.044-1.534Z" transform="translate(-186.083 -95.157)" fill="#313c3f"/>
  <g id="Group_213" data-name="Group 213" transform="translate(4.745 3.029)">
    <path id="Path_447" data-name="Path 447" d="M124.989,89.949h2.222v-.6h-2.222a.3.3,0,0,0-.3.3h0A.3.3,0,0,0,124.989,89.949Z" transform="translate(-124.691 -89.352)" fill="#d6d6d2"/>
    <path id="Path_448" data-name="Path 448" d="M323.354,89.949h-2.222v-.6h2.222a.3.3,0,0,1,.3.3h0A.3.3,0,0,1,323.354,89.949Z" transform="translate(-313.652 -89.352)" fill="#d6d6d2"/>
  </g>
</svg>
