<svg id="resource_center" data-name="resource center" xmlns="http://www.w3.org/2000/svg" width="22.164" height="18.743" viewBox="0 0 22.164 18.743">
  <g id="Group_217" data-name="Group 217" transform="translate(0.001 0)">
    <path id="Path_449" data-name="Path 449" d="M9.328.785a1.8,1.8,0,0,1,1,.081c3.5.865,7,1.72,10.5,2.587a.925.925,0,0,1,.678.945,8.159,8.159,0,0,1-.419,3.288,4.5,4.5,0,0,1-2.4,2.1c-2.005.921-4.037,1.787-6.026,2.744a1.175,1.175,0,0,1-.88.074Q6.5,10.978,1.222,9.354a1.439,1.439,0,0,1-.793-.4.828.828,0,0,1,.017-1.11,2.761,2.761,0,0,1,.894-.479q2.776-1.171,5.552-2.34A2.843,2.843,0,0,0,8.315,3.929a4.84,4.84,0,0,0,.446-2.3A.914.914,0,0,1,9.328.785Zm1.091,1.861a5.15,5.15,0,0,1-.666,2.2,4.412,4.412,0,0,1-2.1,1.7C6.3,7.134,4.932,7.7,3.57,8.277c2.83.9,5.678,1.75,8.514,2.631,1.833-.866,3.689-1.682,5.538-2.51A4.192,4.192,0,0,0,19.394,7.21a4.162,4.162,0,0,0,.393-2.259C16.663,4.187,13.543,3.411,10.419,2.646Z" transform="translate(-0.224 -0.738)" fill="#d71920"/>
  </g>
  <path id="Path_450" data-name="Path 450" d="M20.987,109.358a1.046,1.046,0,0,1,.87-.074.907.907,0,0,1,.526.823v.015a1.051,1.051,0,0,1-.639.766q-4.353,1.981-8.709,3.958a3.965,3.965,0,0,1-.712.29,2.95,2.95,0,0,1-1.186-.238q-5-1.534-9.992-3.072a1.269,1.269,0,0,1-.814-.51.835.835,0,0,1,.329-1.148,1.081,1.081,0,0,1,.838-.022q5.294,1.633,10.59,3.258Q16.539,111.384,20.987,109.358Z" transform="translate(-0.22 -99.815)" fill="#d71920"/>
  <path id="Path_451" data-name="Path 451" d="M21.009,148.763a1.02,1.02,0,0,1,.87-.054.912.912,0,0,1,.5.8v.033a1.032,1.032,0,0,1-.619.754q-4.379,2-8.766,3.987a3.584,3.584,0,0,1-.659.268,2.647,2.647,0,0,1-1.147-.217q-4.979-1.529-9.96-3.059a1.365,1.365,0,0,1-.914-.56.833.833,0,0,1,.358-1.135,1.123,1.123,0,0,1,.864,0q5.269,1.629,10.542,3.248Q16.546,150.794,21.009,148.763Z" transform="translate(-0.216 -135.815)" fill="#d71920"/>
</svg>
