<svg id="Group_238" data-name="Group 238" xmlns="http://www.w3.org/2000/svg" width="15.41" height="18.744" viewBox="0 0 15.41 18.744">
  <g id="Group_236" data-name="Group 236" transform="matrix(-0.208, -0.978, 0.978, -0.208, 1.767, 8.574)">
    <path id="Path_567" data-name="Path 567" d="M.555,0H5.982a1.864,1.864,0,0,1,0,1.252H.555A.609.609,0,0,0,0,.769V.482A.572.572,0,0,0,.555,0Z" transform="translate(2.408 0)" fill="#ffd05b"/>
    <path id="Path_568" data-name="Path 568" d="M0,.422,1.454.211,0,0Z" transform="translate(2.841 0.415)" fill="#f9b54c"/>
    <path id="Path_569" data-name="Path 569" d="M2.686.21H0V.7H2.686a.67.67,0,0,1,.189.2A1.027,1.027,0,0,0,2.963.448,1.027,1.027,0,0,0,2.875,0,.586.586,0,0,1,2.686.21Z" transform="translate(0 0.178)" fill="#324a5e"/>
  </g>
  <g id="Group_228" data-name="Group 228" transform="translate(1.161 1.123)">
    <path id="Path_459" data-name="Path 459" d="M507.6,482.693c.206.065.391.233.608.215a.5.5,0,0,0,.21-.072.777.777,0,0,1-.259-.307.586.586,0,0,1-.013-.251.382.382,0,0,0-.042-.246.42.42,0,0,0-.168-.119l-.347-.161-.109-.051a.18.18,0,0,0-.134.1.2.2,0,0,0-.02.087.875.875,0,0,0-.425.3c.025.208.058.416.089.624A.678.678,0,0,1,507.6,482.693Z" transform="translate(-506.565 -477.083)" fill="#34385f"/>
    <path id="Path_460" data-name="Path 460" d="M511.917,535.157a.671.671,0,0,1,.342.029l.7.185.005,0c.085-.038.17-.078.253-.117-.06-.049-.125-.1-.186-.147a.484.484,0,0,1-.21.072c-.217.018-.4-.15-.608-.215a.684.684,0,0,0-.609.116q.022.138.038.277A.675.675,0,0,1,511.917,535.157Z" transform="translate(-511.18 -529.355)" fill="#12184d"/>
    <path id="Path_461" data-name="Path 461" d="M594.98,579.813a.88.88,0,0,0-.15-.313c-.109.044-.219.087-.327.128-.148.058-.295.116-.443.172h0a.64.64,0,0,1-.058.152c.011.007.02.016.031.024A4.241,4.241,0,0,1,594.98,579.813Z" transform="translate(-592.09 -573.117)" fill="#12184d"/>
    <path id="Path_462" data-name="Path 462" d="M596.574,597.259a.15.15,0,0,0,.069-.1.847.847,0,0,0,.007-.456,4.216,4.216,0,0,0-.95.165,2.46,2.46,0,0,0,.695.367c.022.007.042.015.063.02A.16.16,0,0,0,596.574,597.259Z" transform="translate(-593.759 -590.006)" fill="#34385f"/>
    <path id="Path_463" data-name="Path 463" d="M490.014,1031.529a.476.476,0,0,1-.465-.264.481.481,0,0,1,.083-.528.749.749,0,0,1,.248-.159,1.221,1.221,0,0,0-.684.275.871.871,0,0,0-.4.436,3.126,3.126,0,0,0-.033.393,2.056,2.056,0,0,1-.248.555,1.5,1.5,0,0,0-.145.731.669.669,0,0,0,.269.552.542.542,0,0,0,.581-.062,1.154,1.154,0,0,0,.351-.5c.08-.19.137-.389.233-.571.132-.251.329-.461.468-.707a1.27,1.27,0,0,0,.121-.293l-.038.018A.956.956,0,0,1,490.014,1031.529Z" transform="translate(-488.366 -1016.053)" fill="#34385f"/>
    <path id="Path_464" data-name="Path 464" d="M663.3,414.87c.049-.016.1-.029.146-.042a1.862,1.862,0,0,1-.21-.476,1.238,1.238,0,0,1,.076-.752c-.143.232-.383.416-.512.662a1.8,1.8,0,0,0-.154.64l-.043.385c.065-.045.132-.09.2-.137A2.087,2.087,0,0,1,663.3,414.87Z" transform="translate(-659.454 -410.213)" fill="#e74f61"/>
    <path id="Path_465" data-name="Path 465" d="M695.652,545.642a1.426,1.426,0,0,0-.152.033l.55.157.016.005a.186.186,0,0,0,.237-.179V545.3A1.53,1.53,0,0,1,695.652,545.642Z" transform="translate(-691.76 -539.534)" fill="#b92c49"/>
    <path id="Path_468" data-name="Path 468" d="M689.749,227.876a2.015,2.015,0,0,0,.465-.054,1.7,1.7,0,0,0,.817-.445,1.092,1.092,0,0,0,.277-.383.275.275,0,0,0,.009-.109.821.821,0,0,0-.125-.311,1.13,1.13,0,1,0-1.872,1.259.121.121,0,0,0,.063.029l.036.007A2.111,2.111,0,0,0,689.749,227.876Z" transform="translate(-685.466 -226.007)" fill="#34385f"/>
    <path id="Path_469" data-name="Path 469" d="M508.78,547.489c.148-.056.295-.114.443-.172a1.348,1.348,0,0,0-.327-.64c-.016.009-.034.016-.051.023-.083.04-.168.08-.253.118l-.005,0-.7-.185a.671.671,0,0,0-.342-.029.647.647,0,0,0-.277.2l-.014.016a.291.291,0,0,0-.107.212.184.184,0,0,0,.1.13.548.548,0,0,0,.159.054.834.834,0,0,1,.025.3.863.863,0,0,0,.036.282.306.306,0,0,0,.147.172.5.5,0,0,1,.065-.058l.168-.134a.139.139,0,0,1,.061-.034.145.145,0,0,1,.1.042c.047.034.092.07.139.1a.612.612,0,0,1,.089.078.585.585,0,0,0,.174-.045.64.64,0,0,0,.365-.436S508.78,547.489,508.78,547.489Z" transform="translate(-506.81 -540.805)" fill="#34385f"/>
    <path id="Path_470" data-name="Path 470" d="M603.831,527.685l.327-.128.635-.25a4.92,4.92,0,0,1-.436-.62.645.645,0,0,1-.043-.087c-.264.161-.535.311-.814.447A1.3,1.3,0,0,1,603.831,527.685Z" transform="translate(-601.418 -521.172)" fill="#34385f"/>
    <path id="Path_471" data-name="Path 471" d="M758.145,355.652a4.814,4.814,0,0,1-.98.825.362.362,0,0,0-.168.165.131.131,0,0,0,0,.1l.011.022c.065.121.233.161.367.206s.291.07.436.108a2.072,2.072,0,0,1,.537.228q.081.049.157.1a.151.151,0,0,0,.219-.043,2.613,2.613,0,0,1,.635-.666,2.6,2.6,0,0,0,.637-.541.846.846,0,0,0-.051-.982.964.964,0,0,0-.892-.206,1.054,1.054,0,0,0-.494.219,1.778,1.778,0,0,0-.152.157l-.163.192C758.21,355.578,758.177,355.616,758.145,355.652Z" transform="translate(-752.139 -352.621)" fill="#e74f61"/>
    <path id="Path_472" data-name="Path 472" d="M1153.542,1104.125a4.314,4.314,0,0,1-.069-.467.553.553,0,0,0-.031-.172.342.342,0,0,0-.165-.17.758.758,0,0,0-.125-.052,1.171,1.171,0,0,1-.239-.128.623.623,0,0,0-.649-.065l0,0c-.181.123-.2.373-.253.584a1.564,1.564,0,0,1-.3.618c-.083.1-.188.232-.141.358s.219.157.358.157a8.305,8.305,0,0,0,1.159-.076.587.587,0,0,0,.351-.136A.542.542,0,0,0,1153.542,1104.125Z" transform="translate(-1139.583 -1087.17)" fill="#34385f"/>
    <g id="Group_222" data-name="Group 222" transform="translate(4.798 1.814)">
      <path id="Path_478" data-name="Path 478" d="M755.745,384.237a1.318,1.318,0,0,0,.293-.063.955.955,0,0,0,.289-.222c.253-.253.508-.5.761-.758a1.763,1.763,0,0,0,.454-.608.731.731,0,0,0-.016-.566.529.529,0,0,0-.08-.119.849.849,0,0,1-.092.72,2.6,2.6,0,0,1-.637.541,2.645,2.645,0,0,0-.635.666.151.151,0,0,1-.219.043,1.793,1.793,0,0,0-.157-.1.99.99,0,0,1-.226.157c-.156.081-.322.134-.478.215a2.723,2.723,0,0,0-.387.266l-.316.244a3.423,3.423,0,0,1,.221.266A2.083,2.083,0,0,1,755.745,384.237Z" transform="translate(-754.3 -380.894)" fill="#b92c49"/>
      <path id="Path_479" data-name="Path 479" d="M770.67,329.74c-.2-.259-.154-.658-.244-.973l-.228-.783a2.485,2.485,0,0,0-.394-.89,1.946,1.946,0,0,0-.792-.534,3.461,3.461,0,0,0-1.049-.26l-.031.02c.031.107.058.212.085.318a1.025,1.025,0,0,1,.023.575,2.072,2.072,0,0,1,.152-.157,1.035,1.035,0,0,1,.494-.219.964.964,0,0,1,.892.206.806.806,0,0,1,.143.262.6.6,0,0,1,.08.119.731.731,0,0,1,.016.566,1.731,1.731,0,0,1-.454.608c-.253.253-.508.5-.761.758a.953.953,0,0,1-.289.222,1.222,1.222,0,0,1-.293.063,2.059,2.059,0,0,0-1.219.678,1.685,1.685,0,0,1,.255.481,1.8,1.8,0,0,0,.186.517.649.649,0,0,0,.271.217,1.841,1.841,0,0,0,.581.127,4.736,4.736,0,0,0,1.423.09,2.291,2.291,0,0,0,1.215-.7,1.089,1.089,0,0,0,.251-.407.608.608,0,0,0,.027-.141A1.2,1.2,0,0,0,770.67,329.74Z" transform="translate(-766.574 -326.3)" fill="#ff7473"/>
    </g>
    <g id="Group_223" data-name="Group 223" transform="translate(3.747 2.463)">
      <path id="Path_480" data-name="Path 480" d="M727.227,362.768a.772.772,0,0,1-.32.1,1.308,1.308,0,0,1-.7-.181,2.516,2.516,0,0,1-.64-.488.955.955,0,0,0-.065.083,2.859,2.859,0,0,0,.311.4,1.276,1.276,0,0,0,.657.383.817.817,0,0,0,.579-.1C727.108,362.894,727.169,362.831,727.227,362.768Z" transform="translate(-724.965 -362.2)" fill="#b92c49"/>
      <path id="Path_481" data-name="Path 481" d="M697.435,367.279a1.251,1.251,0,0,1-.656-.383,2.742,2.742,0,0,1-.311-.4,3.613,3.613,0,0,0-.331.62c-.036.078-.069.154-.1.23a1.238,1.238,0,0,0-.076.752,1.831,1.831,0,0,0,.21.476.873.873,0,0,0,.315-.127c.076-.056.132-.134.21-.19a1.3,1.3,0,0,1,.293-.132c.024-.009.045-.02.069-.031l-.011-.022a.14.14,0,0,1,0-.1.362.362,0,0,1,.168-.165,4.833,4.833,0,0,0,.8-.635A.8.8,0,0,1,697.435,367.279Z" transform="translate(-695.933 -366.422)" fill="#ff7473"/>
    </g>
    <g id="Group_224" data-name="Group 224" transform="translate(2.632 4.137)">
      <path id="Path_482" data-name="Path 482" d="M648.348,456.956c.085-.031.179-.031.266-.056.25-.07.4-.322.6-.477a3.4,3.4,0,0,1,.57-.28,3.146,3.146,0,0,0,.745-.557,2.2,2.2,0,0,0-.217-.071c-.145-.038-.293-.061-.436-.108s-.3-.085-.367-.206c-.022.011-.045.022-.069.031a1.3,1.3,0,0,0-.293.132c-.076.056-.134.134-.21.19a.942.942,0,0,1-.315.127c-.049.013-.1.025-.146.042a2.035,2.035,0,0,0-.5.282c-.065.045-.132.09-.2.138l-.183.127a.236.236,0,0,0-.063.056.175.175,0,0,0-.005.172.477.477,0,0,0,.043.087,4.793,4.793,0,0,0,.436.62A.9.9,0,0,1,648.348,456.956Z" transform="translate(-647.272 -455.2)" fill="#34385f"/>
      <path id="Path_483" data-name="Path 483" d="M643.156,476.4a3.049,3.049,0,0,1-.745.557,3.541,3.541,0,0,0-.57.28c-.208.156-.355.407-.6.477-.087.025-.181.025-.266.056a.926.926,0,0,0-.336.242c-.212.081-.423.166-.635.25a.882.882,0,0,1,.148.307.38.38,0,0,0,.136-.016,2.329,2.329,0,0,1,.284-.1c.083-.015.168,0,.251-.011a.557.557,0,0,0,.454-.342c-.09-.025-.179-.051-.269-.078a1.132,1.132,0,0,1,.152-.033,1.485,1.485,0,0,0,.651-.344l.014-.011c.083-.065.168-.128.251-.193l.317-.244a2.939,2.939,0,0,1,.387-.266c.154-.081.322-.136.477-.215a.974.974,0,0,0,.226-.157A2.428,2.428,0,0,0,643.156,476.4Z" transform="translate(-639.895 -476.016)" fill="#12184d"/>
      <path id="Path_484" data-name="Path 484" d="M635.124,570.738c-.083.007-.168,0-.251.011a2.309,2.309,0,0,0-.284.1.348.348,0,0,1-.136.016s0,0,0,.005a.849.849,0,0,1-.007.456.122.122,0,0,1-.185.1l-.063-.02c.011.011.022.022.033.031a.672.672,0,0,0,.275.107l.483.107a.666.666,0,0,0,.215.023.227.227,0,0,0,.179-.107.891.891,0,0,0,.042-.172.861.861,0,0,1,.213-.295.947.947,0,0,0,.221-.624l-.28-.079A.57.57,0,0,1,635.124,570.738Z" transform="translate(-634.2 -568.317)" fill="#34385f"/>
    </g>
    <g id="Group_225" data-name="Group 225" transform="translate(4.253 6.144)">
      <path id="Path_485" data-name="Path 485" d="M979.961,575.43c-.061-.043-.127-.087-.192-.13a1.357,1.357,0,0,1-.186.255l-.083.087a1.415,1.415,0,0,1,.112.329A2.107,2.107,0,0,0,979.961,575.43Z" transform="translate(-974.892 -575.144)" fill="#12184d"/>
      <path id="Path_486" data-name="Path 486" d="M733.279,572.039a1.317,1.317,0,0,0-.107-.575c-.085-.125-.241-.192-.318-.322a1,1,0,0,1-.085-.367,2.084,2.084,0,0,0-.175-.521,9.48,9.48,0,0,0-.564-1.063,5.984,5.984,0,0,0-.868-1.128c.047-.114-.07-.264-.184-.313s-.246-.074-.318-.174a1.676,1.676,0,0,1-.094-.208.626.626,0,0,0-.21-.2c-.228-.157-.458-.313-.685-.47a.8.8,0,0,1-.065.152l.192.13a2.079,2.079,0,0,1-.349.541,1.611,1.611,0,0,0-.112-.329,2.4,2.4,0,0,1-.242.208c.025.136.049.271.072.407-.139.081-.286.157-.425.239-.018-.136-.034-.271-.052-.407a2.3,2.3,0,0,1-.486.163c-.047.009-.094.018-.143.023.02.136.034.273.06.407a3.583,3.583,0,0,1-.8-.063c-.014-.128-.027-.257-.042-.387-.092-.015-.184-.029-.277-.042l.032.4a3.8,3.8,0,0,1-.823-.2v.009a.841.841,0,0,0-.374.452,2.819,2.819,0,0,0-.137.613,1.762,1.762,0,0,0-.023.542c.025.157.092.306.1.463a1.837,1.837,0,0,1-.15.678,2.962,2.962,0,0,0-.1,1.394,2.354,2.354,0,0,1,.056.421.518.518,0,0,1-.15.385.254.254,0,0,0-.27,0,.6.6,0,0,0-.221.2.313.313,0,0,0-.025.04,1.261,1.261,0,0,0-.179.9,1.235,1.235,0,0,0,.2.476c.033-.007.067-.014.1-.024a4.461,4.461,0,0,0,.839-.345,1.826,1.826,0,0,0,1.033-.9c.146-.439-.062-.931.054-1.38a3,3,0,0,1,.307-.633.992.992,0,0,0,.145-.676,1.689,1.689,0,0,0-.3-.517.626.626,0,0,1-.123-.564.6.6,0,0,1,.579-.295,2.822,2.822,0,0,0,.687,0,1.461,1.461,0,0,0,.575-.358c.371-.322.743-.642,1.114-.964l.007-.005a.092.092,0,0,1,.119.136l-.859,1.053a.28.28,0,0,0-.058.11c-.058.208.17.291.329.242a3.691,3.691,0,0,0,.365-.19.3.3,0,0,1,.371.07c-.186.083-.407.233-.36.432s.3.231.485.315a1.26,1.26,0,0,1,.571.855,1.747,1.747,0,0,0,.472.933.793.793,0,0,0,.575.168,1.113,1.113,0,0,1,.467-.029c.275.1.293.479.476.707a.684.684,0,0,0,.711.188c.029-.034.056-.07.081-.107A.931.931,0,0,1,733.279,572.039Z" transform="translate(-724.726 -566.7)" fill="#34385f"/>
      <path id="Path_487" data-name="Path 487" d="M744.672,633.909c-.181-.228-.2-.611-.476-.707a1.055,1.055,0,0,0-.467.029.8.8,0,0,1-.575-.168,1.759,1.759,0,0,1-.472-.933,1.26,1.26,0,0,0-.571-.855c-.183-.083-.44-.119-.485-.315s.174-.347.36-.432a.3.3,0,0,0-.371-.07,3.686,3.686,0,0,1-.365.19c-.159.049-.387-.034-.329-.242a.321.321,0,0,1,.058-.11l.859-1.052a.092.092,0,0,0-.119-.136l-.007.005c-.371.322-.743.642-1.114.964a1.476,1.476,0,0,1-.575.358,2.91,2.91,0,0,1-.687,0,.6.6,0,0,0-.579.295.626.626,0,0,0,.123.564,1.653,1.653,0,0,1,.3.517.984.984,0,0,1-.145.676,2.879,2.879,0,0,0-.307.633c-.116.448.092.94-.054,1.38a1.807,1.807,0,0,1-1.033.9,4.588,4.588,0,0,1-.839.346c-.033.009-.067.016-.1.023a1.281,1.281,0,0,0,.235.259c.029.024.06.047.09.069a.352.352,0,0,0,.289.076c.119-.036.179-.168.271-.251a1.318,1.318,0,0,1,.467-.192,1.351,1.351,0,0,0,.638-.533,3.994,3.994,0,0,0,.369-.76c.4-1.007,1.029-2.418,1.432-3.425a4.508,4.508,0,0,1,2.631,3.084,1.13,1.13,0,0,0,.21.519.7.7,0,0,0,.506.2,1.483,1.483,0,0,0,.181,0,2.019,2.019,0,0,0,1.107-.463,1.9,1.9,0,0,0,.255-.257A.677.677,0,0,1,744.672,633.909Z" transform="translate(-736.483 -627.961)" fill="#12184d"/>
      <path id="Path_488" data-name="Path 488" d="M944.276,606.107c-.023-.136-.049-.271-.072-.407a2.288,2.288,0,0,1-.4.239c.018.136.034.271.052.407C943.99,606.264,944.136,606.187,944.276,606.107Z" transform="translate(-939.838 -604.995)" fill="#12184d"/>
      <path id="Path_489" data-name="Path 489" d="M806.907,615.856c-.076-.011-.15-.02-.226-.029a1.892,1.892,0,0,1-.581-.127c.005.119.011.237.015.356a3.787,3.787,0,0,0,.823.2C806.928,616.123,806.917,615.989,806.907,615.856Z" transform="translate(-804.628 -614.814)" fill="#12184d"/>
      <path id="Path_490" data-name="Path 490" d="M866.739,627.05c-.025-.134-.04-.271-.06-.407a2.987,2.987,0,0,1-.78-.043c.015.128.027.257.042.387A3.475,3.475,0,0,0,866.739,627.05Z" transform="translate(-863.347 -625.516)" fill="#12184d"/>
    </g>
    <g id="Group_226" data-name="Group 226" transform="translate(1.138 12.577)">
      <path id="Path_491" data-name="Path 491" d="M559.494,925.441a.871.871,0,0,0,.45-.156,13.868,13.868,0,0,1,2.342-1.049,1.236,1.236,0,0,1-.174-.439,1.254,1.254,0,0,1,.179-.9,2.83,2.83,0,0,0-1.365.772,5.576,5.576,0,0,1-1.425,1.105c-.054.023-.112.045-.166.071a.816.816,0,0,0-.233.145.487.487,0,0,0,0,.052A.432.432,0,0,0,559.494,925.441Z" transform="translate(-558.959 -922.9)" fill="#34385f"/>
      <path id="Path_492" data-name="Path 492" d="M554.635,996.7a13.923,13.923,0,0,0-2.342,1.049.87.87,0,0,1-.45.155.43.43,0,0,1-.394-.4c0-.018,0-.034,0-.052a.115.115,0,0,0-.014.015.47.47,0,0,0,.382.792.976.976,0,0,0,.34-.123.349.349,0,0,1,.038-.018,20.254,20.254,0,0,1,2.7-1.127A1.187,1.187,0,0,1,554.635,996.7Z" transform="translate(-551.307 -995.365)" fill="#12184d"/>
    </g>
    <g id="Group_227" data-name="Group 227" transform="translate(11.611 12.526)">
      <path id="Path_493" data-name="Path 493" d="M1133.673,923.2a.8.8,0,0,1-.286-.031.814.814,0,0,1-.526-.508c-.123-.356.009-.781-.186-1.1-.054-.09-.132-.167-.192-.255a.349.349,0,0,1-.063-.3c.042-.121.168-.183.275-.253a1.1,1.1,0,0,0,.369-.423,1.866,1.866,0,0,0-.175-.221,2.019,2.019,0,0,1-1.107.463,1.222,1.222,0,0,1-.181,0,2.22,2.22,0,0,0,.369.989c.154.224.347.42.487.651a1.675,1.675,0,0,1,.237.812c0,.152-.013.3-.016.454a.62.62,0,0,1,.649.065,1.087,1.087,0,0,0,.239.128.921.921,0,0,1,.125.052,2.1,2.1,0,0,0-.01-.512C1133.673,923.206,1133.673,923.2,1133.673,923.2Z" transform="translate(-1131.6 -920.1)" fill="#12184d"/>
      <path id="Path_494" data-name="Path 494" d="M1176.383,932.821c-.1.071-.233.134-.275.253a.356.356,0,0,0,.063.3c.058.089.135.163.192.255.2.322.063.749.186,1.105a.818.818,0,0,0,.526.508.765.765,0,0,0,.286.031c-.038-.362-.078-.725-.116-1.087a5.714,5.714,0,0,0-.221-1.223,2.3,2.3,0,0,0-.275-.564A1.085,1.085,0,0,1,1176.383,932.821Z" transform="translate(-1175.29 -932.177)" fill="#34385f"/>
    </g>
  </g>
  <g id="Group_237" data-name="Group 237" transform="matrix(0.914, -0.407, 0.407, 0.914, 4.297, 1.78)">
    <path id="Path_570" data-name="Path 570" d="M2.17,0A2.082,2.082,0,0,1,1.3.175h0A2.35,2.35,0,0,1,.364,0,.919.919,0,0,0,0,.6,3.86,3.86,0,0,0,1.34.845h0A3.555,3.555,0,0,0,2.563.6,1.187,1.187,0,0,0,2.17,0Z" transform="translate(0.073 2.359)" fill="#ced5e0"/>
    <path id="Path_574" data-name="Path 574" d="M2.437,1.486a.123.123,0,0,0-.1,0c0-.044,0-.087,0-.117C2.335.437,1.851,0,1.253,0S.17.437.17,1.369c0,.044,0,.087,0,.117a.123.123,0,0,0-.1,0c-.089.058-.089.248-.013.437a.488.488,0,0,0,.229.248c.178.641.548,1.18.968,1.18s.79-.539.968-1.18a.488.488,0,0,0,.229-.248C2.539,1.733,2.526,1.529,2.437,1.486Z" transform="translate(0.073 0.015)" fill="#ffd05b"/>
    <path id="Path_575" data-name="Path 575" d="M2.289,1.631A1.918,1.918,0,0,0,2.52.714,2.071,2.071,0,0,0,2.4.029L2.392,0H.128L.115.029A2.072,2.072,0,0,0,0,.714a1.459,1.459,0,0,0,1.253,1.6,1.2,1.2,0,0,0,1.023-.67C2.289,1.646,2.289,1.631,2.289,1.631ZM.307,1.6a1.388,1.388,0,0,1-.153-.35,1.772,1.772,0,0,0,.678.175L.9,1.762A1.058,1.058,0,0,1,.307,1.6ZM2.417.9a.962.962,0,0,1-.026.189H2.379c0,.044-.1.131-.307.189a2.664,2.664,0,0,1-.384.073L1.765,1A5.943,5.943,0,0,0,2.417.9ZM1.6,1.354a2.544,2.544,0,0,1-.345.015,2.64,2.64,0,0,1-.345-.015L.831.99A4.088,4.088,0,0,0,1.253,1,4.087,4.087,0,0,0,1.675.99ZM.755.99l.077.35a2.663,2.663,0,0,1-.384-.073C.23,1.209.141,1.136.141,1.078H.128A.962.962,0,0,1,.1.888,2.539,2.539,0,0,0,.755.99Zm.179.466a2.446,2.446,0,0,0,.333.015A2.542,2.542,0,0,0,1.6,1.456l-.064.335c-.077,0-.166.015-.269.015a1.507,1.507,0,0,1-.256-.015Zm.742-.015a1.771,1.771,0,0,0,.678-.175,2.3,2.3,0,0,1-.128.32,1.132,1.132,0,0,1-.614.2ZM.192.1H2.328a1.992,1.992,0,0,1,.1.626q0,.044,0,.087a6.318,6.318,0,0,1-.691.1H1.714a4.6,4.6,0,0,1-.46.015C1.1.932.946.932.793.918H.767a4.039,4.039,0,0,1-.691-.1q0-.044,0-.087A1.636,1.636,0,0,1,.192.1Zm.23,1.675a2.011,2.011,0,0,0,.512.117L1,2.2A1.356,1.356,0,0,1,.422,1.777Zm.665.437-.064-.32c.077,0,.153.015.23.015A1.292,1.292,0,0,0,1.5,1.893l-.064.32a.693.693,0,0,1-.179.015C1.2,2.228,1.138,2.214,1.087,2.214Zm.435-.029.064-.306A1.536,1.536,0,0,0,2.1,1.762,1.21,1.21,0,0,1,1.522,2.185Z" transform="translate(0.073 1.18)" fill="#324a5e"/>
    <path id="Path_576" data-name="Path 576" d="M.306,1.471H2.345s.291-.218.306-.218A1.328,1.328,0,0,0,0,1.238C.015,1.238.306,1.471.306,1.471Z" transform="translate(0 0)" fill="#2f4b57"/>
    <path id="Path_577" data-name="Path 577" d="M2.651.117c0,.306-.6.568-1.325.568S0,.437,0,.117A.343.343,0,0,1,.029,0a2.866,2.866,0,0,0,1.3.248A2.866,2.866,0,0,0,2.621,0,.342.342,0,0,1,2.651.117Z" transform="translate(0 1.107)" fill="#2b3b4e"/>
  </g>
  <g id="cricket-ball" transform="translate(13.942 8.789)">
    <path id="Path_495" data-name="Path 495" d="M58.744,58a.529.529,0,1,1-.748.748Zm0,0" transform="translate(-57.841 -57.841)" fill="#c63838"/>
    <path id="Path_496" data-name="Path 496" d="M.9.155.155.9A.529.529,0,0,1,.9.155Zm0,0" transform="translate(0 0)" fill="#d7443e"/>
    <g id="Group_229" data-name="Group 229" transform="translate(0.092 0.092)">
      <path id="Path_497" data-name="Path 497" d="M166.349,166.339a.021.021,0,0,1-.015-.036l.031-.031a.021.021,0,1,1,.03.03l-.031.031A.021.021,0,0,1,166.349,166.339Zm0,0" transform="translate(-165.976 -165.913)" fill="#fedb41"/>
      <path id="Path_498" data-name="Path 498" d="M202.209,202.261a.021.021,0,0,1-.015-.036l.031-.031a.021.021,0,0,1,.03.03l-.031.031A.021.021,0,0,1,202.209,202.261Zm0,0" transform="translate(-201.74 -201.74)" fill="#fedb41"/>
      <path id="Path_499" data-name="Path 499" d="M195.159,137.558a.021.021,0,0,1-.015-.036l.031-.031a.021.021,0,1,1,.03.03l-.031.031A.021.021,0,0,1,195.159,137.558Zm0,0" transform="translate(-194.709 -137.209)" fill="#fedb41"/>
      <path id="Path_500" data-name="Path 500" d="M231.02,173.562a.021.021,0,0,1-.015-.036l.031-.031a.021.021,0,0,1,.03.03l-.031.031A.021.021,0,0,1,231.02,173.562Zm0,0" transform="translate(-230.474 -173.117)" fill="#fedb41"/>
      <path id="Path_501" data-name="Path 501" d="M223.978,108.708a.021.021,0,0,1-.015-.036l.031-.031a.021.021,0,1,1,.03.03l-.031.031A.021.021,0,0,1,223.978,108.708Zm0,0" transform="translate(-223.451 -108.436)" fill="#fedb41"/>
      <path id="Path_502" data-name="Path 502" d="M259.83,144.632a.021.021,0,0,1-.015-.036l.031-.031a.021.021,0,1,1,.03.03l-.031.031A.021.021,0,0,1,259.83,144.632Zm0,0" transform="translate(-259.207 -144.264)" fill="#fedb41"/>
      <path id="Path_503" data-name="Path 503" d="M137.544,195.249a.021.021,0,0,1-.015-.036l.031-.031a.021.021,0,0,1,.03.03l-.031.031A.021.021,0,0,1,137.544,195.249Zm0,0" transform="translate(-137.247 -194.747)" fill="#fedb41"/>
      <path id="Path_504" data-name="Path 504" d="M173.388,231.008a.021.021,0,0,1-.015-.036l.031-.031a.021.021,0,1,1,.03.03L173.4,231A.021.021,0,0,1,173.388,231.008Zm0,0" transform="translate(-172.996 -230.41)" fill="#fedb41"/>
      <path id="Path_505" data-name="Path 505" d="M108.717,224a.021.021,0,0,1-.015-.036l.031-.031a.021.021,0,1,1,.03.03l-.031.031A.021.021,0,0,1,108.717,224Zm0,0" transform="translate(-108.498 -223.417)" fill="#fedb41"/>
      <path id="Path_506" data-name="Path 506" d="M144.58,259.915a.021.021,0,0,1-.015-.036l.031-.031a.021.021,0,0,1,.03.03l-.031.031A.021.021,0,0,1,144.58,259.915Zm0,0" transform="translate(-144.265 -259.24)" fill="#fedb41"/>
      <path id="Path_507" data-name="Path 507" d="M79.909,252.808a.021.021,0,0,1-.015-.036l.031-.031a.021.021,0,1,1,.03.03l-.031.031A.021.021,0,0,1,79.909,252.808Zm0,0" transform="translate(-79.766 -252.151)" fill="#fedb41"/>
      <path id="Path_508" data-name="Path 508" d="M115.77,288.754a.021.021,0,0,1-.015-.036l.031-.031a.021.021,0,0,1,.03.03l-.031.031A.021.021,0,0,1,115.77,288.754Zm0,0" transform="translate(-115.532 -288.001)" fill="#fedb41"/>
      <path id="Path_509" data-name="Path 509" d="M51.74,280.948a.021.021,0,0,1-.015-.036l.031-.031a.021.021,0,1,1,.03.03l-.031.031A.021.021,0,0,1,51.74,280.948Zm0,0" transform="translate(-51.672 -280.216)" fill="#fedb41"/>
      <path id="Path_510" data-name="Path 510" d="M87.589,316.808a.021.021,0,0,1-.015-.036l.031-.031a.021.021,0,1,1,.03.03l-.031.031A.021.021,0,0,1,87.589,316.808Zm0,0" transform="translate(-87.425 -315.981)" fill="#fedb41"/>
      <path id="Path_511" data-name="Path 511" d="M252.791,80a.021.021,0,0,1-.015-.036l.031-.031a.021.021,0,0,1,.03.03l-.031.031A.021.021,0,0,1,252.791,80Zm0,0" transform="translate(-252.187 -79.801)" fill="#fedb41"/>
      <path id="Path_512" data-name="Path 512" d="M288.638,115.758a.021.021,0,0,1-.015-.036l.031-.031a.021.021,0,1,1,.03.03l-.031.031A.021.021,0,0,1,288.638,115.758Zm0,0" transform="translate(-287.938 -115.468)" fill="#fedb41"/>
      <path id="Path_513" data-name="Path 513" d="M280.96,51.913a.021.021,0,0,1-.015-.036l.031-.031a.021.021,0,0,1,.03.03l-.031.031A.021.021,0,0,1,280.96,51.913Zm0,0" transform="translate(-280.281 -51.794)" fill="#fedb41"/>
      <path id="Path_514" data-name="Path 514" d="M316.818,87.516a.021.021,0,0,1-.015-.036l.031-.031a.021.021,0,0,1,.036.009.021.021,0,0,1-.006.021l-.031.031A.021.021,0,0,1,316.818,87.516Zm0,0" transform="translate(-316.043 -87.3)" fill="#fedb41"/>
      <path id="Path_515" data-name="Path 515" d="M219.49,219.507a.021.021,0,0,1-.015-.036l.031-.031a.021.021,0,1,1,.03.03l-.031.031A.021.021,0,0,1,219.49,219.507Zm0,0" transform="translate(-218.975 -218.94)" fill="#fedb41"/>
      <path id="Path_516" data-name="Path 516" d="M248.306,190.732a.021.021,0,0,1-.015-.036l.031-.031a.021.021,0,0,1,.03.03l-.031.031A.021.021,0,0,1,248.306,190.732Zm0,0" transform="translate(-247.714 -190.242)" fill="#fedb41"/>
      <path id="Path_517" data-name="Path 517" d="M277.119,161.921a.021.021,0,0,1-.015-.036l.031-.031a.021.021,0,0,1,.03.03l-.031.031A.021.021,0,0,1,277.119,161.921Zm0,0" transform="translate(-276.45 -161.507)" fill="#fedb41"/>
      <path id="Path_518" data-name="Path 518" d="M190.678,248.3a.021.021,0,0,1-.015-.036l.031-.031a.021.021,0,1,1,.03.03l-.031.031A.021.021,0,0,1,190.678,248.3Zm0,0" transform="translate(-190.24 -247.653)" fill="#fedb41"/>
      <path id="Path_519" data-name="Path 519" d="M161.869,277.171a.021.021,0,0,1-.015-.036l.031-.031a.021.021,0,0,1,.03.03l-.031.031A.021.021,0,0,1,161.869,277.171Zm0,0" transform="translate(-161.508 -276.449)" fill="#fedb41"/>
      <path id="Path_520" data-name="Path 520" d="M133.048,305.98a.021.021,0,0,1-.015-.036l.031-.031a.021.021,0,0,1,.03.03l-.031.031A.021.021,0,0,1,133.048,305.98Zm0,0" transform="translate(-132.764 -305.182)" fill="#fedb41"/>
      <path id="Path_521" data-name="Path 521" d="M104.879,334.1a.021.021,0,0,1-.015-.036l.031-.031a.021.021,0,1,1,.03.03l-.031.031A.021.021,0,0,1,104.879,334.1Zm0,0" transform="translate(-104.67 -333.224)" fill="#fedb41"/>
      <path id="Path_522" data-name="Path 522" d="M305.927,133.1a.021.021,0,0,1-.015-.036l.031-.031a.021.021,0,0,1,.03.03l-.031.031A.021.021,0,0,1,305.927,133.1Zm0,0" transform="translate(-305.181 -132.765)" fill="#fedb41"/>
      <path id="Path_523" data-name="Path 523" d="M334.11,104.868a.021.021,0,0,1-.015-.036l.031-.031a.021.021,0,1,1,.03.03l-.031.031A.021.021,0,0,1,334.11,104.868Zm0,0" transform="translate(-333.289 -104.607)" fill="#fedb41"/>
      <path id="Path_524" data-name="Path 524" d="M149.057,149.046a.021.021,0,0,1-.015-.036l.031-.031a.021.021,0,1,1,.03.03l-.031.031A.021.021,0,0,1,149.057,149.046Zm0,0" transform="translate(-148.73 -148.667)" fill="#fedb41"/>
      <path id="Path_525" data-name="Path 525" d="M177.87,120.265a.021.021,0,0,1-.015-.036l.031-.031a.021.021,0,1,1,.03.03l-.031.031A.021.021,0,0,1,177.87,120.265Zm0,0" transform="translate(-177.466 -119.963)" fill="#fedb41"/>
      <path id="Path_526" data-name="Path 526" d="M206.689,91.492a.021.021,0,0,1-.015-.036l.031-.031a.021.021,0,0,1,.03.03l-.031.031A.021.021,0,0,1,206.689,91.492Zm0,0" transform="translate(-206.208 -91.266)" fill="#fedb41"/>
      <path id="Path_527" data-name="Path 527" d="M120.248,177.921a.021.021,0,0,1-.015-.036l.031-.031a.021.021,0,1,1,.03.03l-.031.031A.021.021,0,0,1,120.248,177.921Zm0,0" transform="translate(-119.998 -177.464)" fill="#fedb41"/>
      <path id="Path_528" data-name="Path 528" d="M91.439,206.742a.021.021,0,0,1-.015-.036l.031-.031a.021.021,0,0,1,.03.03l-.031.031A.021.021,0,0,1,91.439,206.742Zm0,0" transform="translate(-91.266 -206.209)" fill="#fedb41"/>
      <path id="Path_529" data-name="Path 529" d="M62.619,235.55a.021.021,0,0,1-.015-.036l.031-.031a.021.021,0,0,1,.03.03l-.031.031a.021.021,0,0,1-.015.006Zm0,0" transform="translate(-62.522 -234.94)" fill="#fedb41"/>
      <path id="Path_530" data-name="Path 530" d="M34.45,263.657a.021.021,0,0,1-.015-.036l.031-.031a.021.021,0,1,1,.03.03l-.031.031A.021.021,0,0,1,34.45,263.657Zm0,0" transform="translate(-34.429 -262.971)" fill="#fedb41"/>
      <path id="Path_531" data-name="Path 531" d="M235.5,62.608a.021.021,0,0,1-.015-.036l.031-.031a.021.021,0,1,1,.03.03l-.031.031A.021.021,0,0,1,235.5,62.608Zm0,0" transform="translate(-234.941 -62.459)" fill="#fedb41"/>
      <path id="Path_532" data-name="Path 532" d="M263.669,34.564a.021.021,0,0,1-.015-.036l.031-.031a.021.021,0,0,1,.03.03l-.031.031A.021.021,0,0,1,263.669,34.564Zm0,0" transform="translate(-263.036 -34.491)" fill="#fedb41"/>
    </g>
  </g>
  <path id="Path_539" data-name="Path 539" d="M2.13,2.244s-.287,2.387-.287,2.781c0,0,.2.692-.119.848-.012.012-.036.012-.06.024a.451.451,0,0,1-.215-.012.148.148,0,0,1-.024-.036.812.812,0,0,0-.072-.107.982.982,0,0,0-.227-.215A.042.042,0,0,1,1.1,5.515a.042.042,0,0,0-.024.012.788.788,0,0,0-.227.215.81.81,0,0,0-.072.107.148.148,0,0,1-.024.036A.451.451,0,0,1,.543,5.9c-.024,0-.036-.012-.06-.024C.161,5.73.364,5.025.364,5.025c0-.394-.286-2.781-.286-2.781-.107-.119-.072-.7-.072-.7A2.2,2.2,0,0,1,.388.394.316.316,0,0,0,.447.322a1.665,1.665,0,0,1,.239-.2C.71.107.722.1.746.084A.856.856,0,0,1,1.056,0H1.1a.8.8,0,0,1,.31.084c.024.012.036.024.06.036a.748.748,0,0,1,.239.2.317.317,0,0,1,.06.072A2.2,2.2,0,0,1,2.154,1.54,1.105,1.105,0,0,1,2.13,2.244Z" transform="translate(12.123 11.919) rotate(-11)" fill="#ced5e0"/>
  <path id="Path_578" data-name="Path 578" d="M2.355,2.244s-.317,2.387-.317,2.781c0,0,.224.692-.132.848-.013.012-.04.012-.066.024A.55.55,0,0,1,1.6,5.885a.148.148,0,0,1-.026-.036A.808.808,0,0,0,1.5,5.742a1.048,1.048,0,0,0-.251-.215.048.048,0,0,1-.026-.012.048.048,0,0,0-.026.012.841.841,0,0,0-.251.215.808.808,0,0,0-.079.107.149.149,0,0,1-.026.036A.55.55,0,0,1,.6,5.9a.148.148,0,0,1-.066-.024C.178,5.73.4,5.025.4,5.025.4,4.632.086,2.244.086,2.244c-.119-.119-.079-.7-.079-.7A2.068,2.068,0,0,1,.429.394.325.325,0,0,0,.495.322a1.808,1.808,0,0,1,.264-.2C.785.107.8.1.824.084A1.027,1.027,0,0,1,1.168,0H1.22a.963.963,0,0,1,.343.084c.026.012.04.024.066.036a.812.812,0,0,1,.264.2.326.326,0,0,1,.066.072A2.068,2.068,0,0,1,2.381,1.54,1.006,1.006,0,0,1,2.355,2.244Z" transform="matrix(0.53, 0.848, -0.848, 0.53, 7.006, 12.422)" fill="#ced5e0"/>
</svg>
