<svg id="Group_244" data-name="Group 244" xmlns="http://www.w3.org/2000/svg" width="21.137" height="20.069" viewBox="0 0 21.137 20.069">
  <line id="Line_11" data-name="Line 11" x1="2.959" y2="6.378" transform="translate(5.069 12.362)" fill="none" stroke="#71778f" stroke-linecap="round" stroke-miterlimit="10" stroke-width="2"/>
  <line id="Line_12" data-name="Line 12" x2="2.959" y2="6.378" transform="translate(8.029 12.362)" fill="none" stroke="#71778f" stroke-linecap="round" stroke-miterlimit="10" stroke-width="2"/>
  <path id="Path_591" data-name="Path 591" d="M42.191,15.486,37.2,10.72a.707.707,0,0,1,.015-1.008l4.987-4.6a.7.7,0,0,1,1.173.511v9.368A.7.7,0,0,1,42.191,15.486Z" transform="translate(-22.243 -3.954)" fill="#ef4a4a"/>
  <path id="Subtraction_10" data-name="Subtraction 10" d="M13.886,12.358H1.511A1.513,1.513,0,0,1,0,10.846V1.572A1.574,1.574,0,0,1,1.572,0h12.4a1.574,1.574,0,0,1,1.572,1.572v9.122A1.665,1.665,0,0,1,13.886,12.358Zm-9.3-9.966A2.192,2.192,0,1,0,6.778,4.584,2.2,2.2,0,0,0,4.585,2.392Z" transform="translate(0 0)" fill="#363e4b"/>
</svg>
